# xmcd CD database file
#
# Track frame offsets:
#	150
#	12605
#	24294
#	38281
#	51371
#	64428
#	77120
#	89349
#	100892
#	113486
#	126031
#	139932
#	151544
#	165556
#	176385
#	183634
#	196384
#	209011
#	221851
#	231586
#
# Disc length: 3250 seconds
#
# Revision: 0
# Processed by: cddbd v1.5.1PL0 Copyright (c) Steve Scherf et al.
# Submitted via: ACXtractor (MTCDDB.DLL V2003.12.21)
#
DISCID=170cb014
DTITLE=Hank Williams - The Gold Collection CD 1
DYEAR=2004
DGENRE=Country
TTITLE0=Move It On Over
TTITLE1=A Mansion On The Hill
TTITLE2=Lovesick Blues
TTITLE3=Wedding Bells
TTITLE4=Mind Your Own Business
TTITLE5=You´re Gonna Change (Or I´m Gonna Leave)
TTITLE6=Lost Highway
TTITLE7=My Bucket´s Got A Hole In It
TTITLE8=I´m So Lonesome I Could Cry
TTITLE9=I Just Don´t Like This Kind Of Living
TTITLE10=Long Gone Lonesome Blues
TTITLE11=My Son Calls Another Man Daddy
TTITLE12=Why Don´t You Love Me
TTITLE13=Why Should We Try Anymore
TTITLE14=They´ll Never Take Her Love From Me
TTITLE15=Moanin´ The Blues
TTITLE16=Nobody´s Lonesome For Me
TTITLE17=Cold Cold Heart
TTITLE18=Dear John
TTITLE19=Howlin´ At The Moon
EXTD=ID3G:   2 YEAR: 2004
EXTT0=
EXTT1=
EXTT2=
EXTT3=
EXTT4=
EXTT5=
EXTT6=
EXTT7=
EXTT8=
EXTT9=
EXTT10=
EXTT11=
EXTT12=
EXTT13=
EXTT14=
EXTT15=
EXTT16=
EXTT17=
EXTT18=
EXTT19=
PLAYORDER=
